<svg width="36" height="36" viewBox="0 0 36 36" fill="none" xmlns="http://www.w3.org/2000/svg">
<path d="M18 4.5V31.5" stroke="#26D2A2" stroke-width="2" stroke-linecap="round" stroke-linejoin="round"/>
<path d="M28.5 12L33 24C31.7018 24.9737 30.1228 25.5 28.5 25.5C26.8772 25.5 25.2982 24.9737 24 24L28.5 12ZM28.5 12V10.5" stroke="#26D2A2" stroke-width="2" stroke-linecap="round" stroke-linejoin="round"/>
<path d="M4.5 10.5H6C10.1856 10.5 14.3068 9.46969 18 7.5C21.6932 9.46969 25.8144 10.5 30 10.5H31.5" stroke="#26D2A2" stroke-width="2" stroke-linecap="round" stroke-linejoin="round"/>
<path d="M7.5 12L12 24C10.7018 24.9737 9.12278 25.5 7.5 25.5C5.87722 25.5 4.29822 24.9737 3 24L7.5 12ZM7.5 12V10.5" stroke="#26D2A2" stroke-width="2" stroke-linecap="round" stroke-linejoin="round"/>
<path d="M10.5 31.5H25.5" stroke="#26D2A2" stroke-width="2" stroke-linecap="round" stroke-linejoin="round"/>
</svg>
